<?xml version="1.0" encoding="UTF-8" standalone="no"?>
<svg
   xmlns:dc="http://purl.org/dc/elements/1.1/"
   xmlns:cc="http://creativecommons.org/ns#"
   xmlns:rdf="http://www.w3.org/1999/02/22-rdf-syntax-ns#"
   xmlns:svg="http://www.w3.org/2000/svg"
   xmlns="http://www.w3.org/2000/svg"
   xmlns:sodipodi="http://sodipodi.sourceforge.net/DTD/sodipodi-0.dtd"
   xmlns:inkscape="http://www.inkscape.org/namespaces/inkscape"
   version="1.1"
   id="svg2"
   xml:space="preserve"
   width="295.74667"
   height="124.69333"
   viewBox="0 0 295.74667 124.69333"
   sodipodi:docname="LaCie_logo_blue.eps"><metadata
     id="metadata8"><rdf:RDF><cc:Work
         rdf:about=""><dc:format>image/svg+xml</dc:format><dc:type
           rdf:resource="http://purl.org/dc/dcmitype/StillImage" /></cc:Work></rdf:RDF></metadata><defs
     id="defs6" /><sodipodi:namedview
     pagecolor="#ffffff"
     bordercolor="#666666"
     borderopacity="1"
     objecttolerance="10"
     gridtolerance="10"
     guidetolerance="10"
     inkscape:pageopacity="0"
     inkscape:pageshadow="2"
     inkscape:window-width="640"
     inkscape:window-height="480"
     id="namedview4" /><g
     id="g10"
     inkscape:groupmode="layer"
     inkscape:label="ink_ext_XXXXXX"
     transform="matrix(1.3333333,0,0,-1.3333333,0,124.69333)"><g
       id="g12"
       transform="scale(0.1)"><path
         d="m 2170.35,444.434 c 0,-219.422 -450.55,-397.3051 -1006.34,-397.3051 -555.791,0 -1006.346,177.8831 -1006.346,397.3051 0,219.418 450.555,397.296 1006.346,397.296 555.79,0 1006.34,-177.878 1006.34,-397.296"
         style="fill:#ffffff;fill-opacity:1;fill-rule:nonzero;stroke:none"
         id="path14" /><path
         d="M 1864.38,617.277 H 1680.83 V 506.996 h 178.19 V 442.23 H 1680.83 V 289.41 h 183.55 v -64.738 h -252.35 v 457.406 h 252.35 z m -314,-392.605 h -68.81 v 457.406 h 68.81 z m -137.35,421.91 c -49.29,41.16 -104.27,49.617 -156.91,49.617 -58,0 -106.88,-20.867 -146.6,-62.57 -40,-41.465 -59.97,-92.227 -59.97,-152.25 0,-59.316 19.97,-109.301 59.97,-150.039 39.96,-40.758 88.96,-61.129 147,-61.129 29.94,0 59.49,0.809 80.45,10.555 11.71,4.871 23.81,11.492 36.37,19.707 12.56,8.289 25.78,14.277 39.69,25.972 v -98.773 c -48.78,-27.66 -103.99,-37.43 -157.62,-37.43 -80.74,0 -149.6,28.16 -206.61,84.504 -56.835,56.781 -85.284,125.317 -85.284,205.547 0,71.914 23.808,136.078 71.384,192.395 58.5,68.976 134.24,103.5 227.05,103.5 50.74,0 103.78,-5.637 151.08,-33.008 z M 915.969,224.672 867.922,335.996 H 671.934 L 620.941,224.672 H 367.859 v 457.406 h 68.825 V 289.41 h 139.98 l 196.383,422 218.476,-486.738 z M 1109.02,935.215 C 496.559,935.215 0,725.816 0,467.578 0,209.277 496.559,0 1109.02,0 c 612.52,0 1109.07,209.277 1109.07,467.578 0,258.238 -496.55,467.637 -1109.07,467.637 z M 700.676,400.727 h 139.058 l -67.918,155.617 z"
         style="fill:#202958;fill-opacity:1;fill-rule:nonzero;stroke:none"
         id="path16" /></g></g></svg>
