<svg width="755" height="319" viewBox="0 0 755 319" fill="none" xmlns="http://www.w3.org/2000/svg">
<path d="M340.856 190.051C338 204.026 333.377 216.441 323.5 225.875C321.084 228.183 322.31 230.211 323.534 232.467C328.706 241.997 333.838 251.553 338.914 261.142C339.829 262.871 341.392 264.454 340.765 266.707C339.739 268.261 338.265 267.924 336.972 267.929C325.129 267.971 313.286 267.887 301.444 267.999C298.114 268.031 296.06 266.701 294.621 263.437C291.56 256.494 289.725 247.461 284.568 243.473C279.694 239.704 271.181 241.52 264.32 240.491C237.797 236.51 219.287 215.416 216.724 186.452C214.261 158.631 215.95 130.743 215.7 102.889C215.563 87.5273 214.978 72.1549 216.599 56.7681C220.087 23.6706 241.743 1.68871 273.156 0.142576C285.9 -0.484738 298.386 0.818112 310.054 6.86656C331.885 18.1825 341.363 38.3114 341.908 62.9032C342.761 101.376 342.174 139.887 342.092 178.381C342.084 182.094 341.34 185.806 340.856 190.051ZM257.132 143.47C257.535 156.323 256.112 169.247 258.437 182.025C260.751 194.745 267.429 201.126 278.507 201.212C290.45 201.304 296.93 195.551 299.397 182.441C300.045 178.998 300.616 175.464 300.625 171.971C300.711 137.455 300.664 102.939 300.673 68.4223C300.674 62.9518 299.586 57.6673 298.038 52.537C295.431 43.899 289.504 39.5601 280.366 39.1296C270.094 38.6455 264.175 42.1641 260.643 51.0183C258.01 57.6219 257.189 64.6381 257.167 71.7325C257.093 95.2284 257.135 118.725 257.132 143.47Z" fill="url(#paint0_linear_103_2)"/>
<path d="M458.926 210.328C458.844 223.933 456.16 236.245 448.006 246.932C439.669 257.859 427.989 262.767 414.955 264.528C395.744 267.123 376.381 265.15 357.092 265.628C354.658 265.688 353.34 264.581 353.396 262.042C353.421 260.877 353.365 259.71 353.365 258.544C353.367 200.58 353.368 142.616 353.377 84.6511C353.379 77.1778 353.402 77.0399 360.779 77.1825C377.918 77.5137 395.087 76.1392 412.196 77.9931C441.137 81.1289 458.582 100.186 458.836 129.386C459.07 156.201 458.913 183.019 458.926 210.328ZM423.249 181.873C423.248 168.708 423.187 155.543 423.277 142.38C423.313 137.199 422.989 132.068 422.308 126.94C420.989 117.005 415.095 109.69 406.372 108.044C402.654 107.343 398.74 107.582 394.914 107.572C388.147 107.555 388.014 107.735 388.013 114.683C388.01 151.177 387.968 187.67 388.043 224.164C388.067 236.323 386.087 235.026 398.908 235.008C413.137 234.989 420.698 227.868 422.456 213.817C423.746 203.502 422.959 193.185 423.249 181.873Z" fill="url(#paint1_linear_103_2)"/>
<path d="M65.1837 258.502C65.0735 245.055 65.0606 232.057 64.938 219.06C64.9035 215.405 64.694 211.738 64.3104 208.103C63.1612 197.217 60.0113 194.344 49.0336 193.927C47.5354 193.87 46.034 193.901 44.5347 193.865C33.6996 193.608 33.6962 193.606 33.6979 204.702C33.7006 222.867 33.5578 241.034 33.8135 259.195C33.8825 264.099 32.2031 265.6 27.4814 265.384C20.4964 265.064 13.4712 265.01 6.49198 265.383C1.38971 265.656 -0.014205 263.836 0.000108046 258.821C0.161103 202.326 0.108018 145.831 0.109727 89.3356C0.110093 76.7963 0.10733 76.6405 12.9087 76.8116C29.0582 77.0275 45.2396 75.8101 61.3548 77.5385C88.0708 80.404 98.5951 90.4739 101.241 117.181C102.385 128.727 102.171 140.465 100.939 152.109C99.8452 162.453 94.9585 170.282 86.1327 175.718C85.4632 176.13 84.8868 176.694 84.313 177.151C84.5848 177.718 84.6465 178.164 84.8753 178.28C97.1203 184.481 99.3174 195.787 99.5939 207.84C99.8614 219.499 99.6205 231.17 99.6794 242.835C99.7166 250.219 98.4289 257.844 104.063 264.517C99.0871 265.926 94.7761 265.158 90.5374 265.265C84.8749 265.409 79.1886 265.023 73.545 265.379C68.5944 265.691 65.992 263.701 65.1837 258.502ZM33.7037 149.485C33.6996 152.483 33.8207 155.487 33.6577 158.476C33.4798 161.74 34.8969 162.965 38.0814 162.856C43.0727 162.686 48.0867 162.963 53.0633 162.633C61.1457 162.096 66.5846 156.982 66.9235 148.95C67.3303 139.31 67.3294 129.624 66.8963 119.986C66.5599 112.501 61.4424 107.766 53.9689 107.276C48.8255 106.939 43.6485 107.151 38.4932 106.947C34.8034 106.801 33.591 108.386 33.6403 112.019C33.8052 124.174 33.7038 136.333 33.7037 149.485Z" fill="url(#paint2_linear_103_2)"/>
<path d="M170.513 267.38C158.68 269.172 147.441 268.061 136.455 265C119.848 260.373 111.982 248.14 109.145 232.034C107.109 220.477 108.343 208.775 108.055 197.139C107.989 194.461 109.076 193.032 111.797 193.025C121.124 193.003 130.452 193.006 139.779 192.984C143.167 192.976 143.764 194.985 143.811 197.903C143.951 206.546 143.139 215.211 144.617 223.829C146.206 233.09 151.315 236.929 162.186 236.697C170.878 236.512 176.331 231.686 176.95 222.967C177.35 217.335 177.328 211.624 176.893 205.995C176.416 199.82 172.731 195.245 168.006 191.503C161.966 186.72 155.224 183.064 148.386 179.609C140.623 175.686 133.232 171.199 126.596 165.574C118.052 158.331 112.293 149.454 110.901 138.071C109.62 127.597 109.454 117.184 111.924 106.835C116.093 89.3694 127.377 79.3096 144.659 75.8761C155.194 73.7832 165.89 73.8421 176.433 75.9299C196.318 79.8678 208.253 93.9312 209.492 114.856C209.895 121.663 209.551 128.512 209.685 135.339C209.742 138.275 208.674 139.372 205.623 139.506C196.962 139.886 188.319 139.524 179.668 139.445C176.374 139.415 175.262 137.921 175.274 134.872C175.297 129.043 175.387 123.204 175.095 117.387C174.659 108.728 170.471 104.561 162.118 103.99C152.423 103.329 147.428 106.749 145.576 115.318C142.288 130.525 145.721 138.768 159.027 146.918C169.106 153.091 179.878 158.075 189.716 164.678C204.15 174.368 212.238 187.453 211.73 205.265C211.502 213.252 212.28 221.354 211.206 229.213C208.134 251.694 194.103 264.628 170.513 267.38Z" fill="url(#paint3_linear_103_2)"/>
<path d="M472.611 196.551C480.943 158.987 489.163 121.825 497.392 84.6643C499.055 77.1572 499.07 77.1538 506.785 77.1489C513.612 77.1446 520.46 77.4769 527.261 77.055C532.089 76.7555 533.926 78.5703 534.927 83.1519C540.286 107.668 545.93 132.121 551.491 156.593C559.334 191.102 567.121 225.623 575.128 260.094C576.12 264.363 575.355 265.858 570.872 265.739C562.717 265.523 554.549 265.509 546.396 265.742C542.811 265.845 541.301 264.389 540.715 261.08C539.644 255.028 538.268 249.029 537.243 242.969C536.617 239.261 535.016 237.574 530.968 237.683C521.483 237.939 511.981 237.941 502.497 237.674C498.478 237.561 496.881 239.092 496.302 242.895C495.376 248.97 493.892 254.96 492.962 261.035C492.426 264.532 490.817 265.799 487.322 265.72C479.5 265.543 471.67 265.684 463.843 265.666C457.337 265.651 457.243 265.439 458.633 259.239C463.288 238.484 467.883 217.717 472.611 196.551ZM511.371 163.449C508.741 177.781 506.11 192.112 503.333 207.239C510.462 207.239 516.902 207.257 523.343 207.234C529.576 207.212 529.992 206.654 528.819 200.66C526.265 187.613 523.847 174.54 521.196 161.513C519.292 152.158 517.362 142.816 516.493 133.222C515.11 143.13 513.679 152.929 511.371 163.449Z" fill="url(#paint4_linear_103_2)"/>
<path d="M661.049 139.891C665.422 120.173 669.745 100.873 673.9 81.5373C674.583 78.3577 675.993 77.0599 679.275 77.1158C687.766 77.2603 696.265 77.2854 704.754 77.0872C708.344 77.0033 709.634 78.5806 710.372 81.8671C718.462 117.874 726.675 153.853 734.851 189.84C740.042 212.686 745.233 235.532 750.406 258.381C750.877 260.46 751.672 262.514 751.133 265.235C746.659 266.099 742.02 265.549 737.435 265.643C732.441 265.746 727.433 265.465 722.45 265.724C718.726 265.917 716.959 264.44 716.365 260.851C715.39 254.952 714.126 249.102 713.13 243.206C712.49 239.419 710.993 237.474 706.596 237.639C697.117 237.996 687.61 237.924 678.124 237.671C674.286 237.569 672.733 239.122 672.148 242.64C671.167 248.543 669.842 254.39 668.915 260.3C668.348 263.921 667.091 265.907 662.893 265.755C654.743 265.462 646.573 265.575 638.415 265.712C634.529 265.777 633.121 264.866 634.111 260.495C643.178 220.457 652.029 180.37 661.049 139.891ZM683.196 184.366C681.902 191.683 680.608 199 679.153 207.228C686.619 207.228 693.537 207.047 700.44 207.292C705.017 207.454 705.607 205.634 704.872 201.543C700.504 177.248 693.845 153.349 692.082 128.544C691.326 147.24 686.644 165.275 683.196 184.366Z" fill="url(#paint5_linear_103_2)"/>
<path d="M587.382 121.401C587.134 108.321 589.472 109.399 576.052 109.404C571.056 109.406 566.061 109.345 561.066 109.355C557.987 109.36 556.498 107.964 556.523 104.802C556.586 96.9759 556.631 89.1481 556.516 81.3236C556.452 77.0126 559.263 77.1316 562.233 77.1334C588.543 77.1494 614.853 77.132 641.163 77.1487C653.015 77.1562 653.016 77.1812 653.012 89.1406C653.01 94.3026 652.874 99.4691 653.046 104.625C653.162 108.091 651.69 109.423 648.34 109.379C641.847 109.296 635.352 109.377 628.858 109.37C622.124 109.362 622.057 109.352 622.037 116.31C621.989 132.795 621.919 149.281 622.026 165.766C622.197 192.071 621.568 218.378 622.451 244.682C622.64 250.326 622.087 255.991 622.021 261.648C621.991 264.278 621.138 265.69 618.276 265.669C609.285 265.604 600.292 265.619 591.301 265.663C588.599 265.676 587.287 264.507 587.376 261.77C587.424 260.274 587.359 258.774 587.36 257.275C587.366 212.148 587.374 167.022 587.382 121.401Z" fill="url(#paint6_linear_103_2)"/>
<path d="M395.439 282.215C399.405 281.939 401.08 283.242 401.002 287.044C400.818 296.019 400.848 305.001 400.976 313.978C401.024 317.329 399.92 318.782 396.387 318.717C387.411 318.553 378.428 318.529 369.453 318.715C365.644 318.793 364.529 317.118 364.568 313.639C364.666 304.994 364.694 296.345 364.528 287.702C364.452 283.711 365.804 282.012 370.021 282.137C378.327 282.383 386.646 282.211 395.439 282.215Z" fill="url(#paint7_linear_103_2)"/>
<path d="M435.337 296.382C435.326 282.219 435.326 282.218 448.971 282.201C455.122 282.194 461.274 282.262 467.423 282.161C470.564 282.109 471.946 283.363 471.915 286.577C471.823 295.886 471.841 305.196 471.905 314.505C471.925 317.438 470.719 318.716 467.743 318.69C458.267 318.607 448.791 318.6 439.316 318.665C436.227 318.687 435.289 317.162 435.328 314.335C435.41 308.518 435.343 302.698 435.337 296.382Z" fill="url(#paint8_linear_103_2)"/>
<path d="M600.598 282.184C612.96 282.2 612.962 282.2 612.956 294.147C612.953 300.638 612.823 307.131 612.982 313.618C613.067 317.093 612.117 318.82 608.237 318.733C599.254 318.532 590.263 318.569 581.278 318.704C577.816 318.756 576.519 317.338 576.549 313.977C576.632 304.991 576.649 296.002 576.504 287.018C576.443 283.282 578.072 282.044 581.63 282.138C587.784 282.3 593.944 282.184 600.598 282.184Z" fill="url(#paint9_linear_103_2)"/>
<path d="M665.618 282.197C670.449 282.2 674.785 282.299 679.114 282.175C682.475 282.078 683.954 283.398 683.907 286.87C683.785 295.867 683.795 304.868 683.895 313.865C683.931 317.154 682.862 318.765 679.299 318.709C670.136 318.566 660.969 318.587 651.804 318.682C648.665 318.715 647.268 317.586 647.308 314.319C647.417 305.155 647.426 295.987 647.295 286.824C647.245 283.303 648.798 282.086 652.121 282.18C656.45 282.303 660.786 282.202 665.618 282.197Z" fill="url(#paint10_linear_103_2)"/>
<path d="M542.559 312.153C542.988 316.989 541.434 318.962 536.646 318.768C528.165 318.425 519.659 318.547 511.168 318.705C507.52 318.773 506.128 317.444 506.198 313.759C506.366 304.935 506.354 296.103 506.197 287.278C506.134 283.72 507.28 282.11 511.042 282.174C519.867 282.326 528.698 282.322 537.523 282.16C541.219 282.093 542.624 283.671 542.595 287.195C542.528 295.356 542.569 303.517 542.559 312.153Z" fill="url(#paint11_linear_103_2)"/>
<path d="M741.595 318.671C734.94 318.662 728.779 318.575 722.621 318.674C719.436 318.726 718.167 317.431 718.206 314.222C718.319 305.068 718.341 295.909 718.192 286.756C718.133 283.16 719.792 282.159 723.05 282.197C731.872 282.298 740.697 282.335 749.518 282.188C753.197 282.127 754.605 283.686 754.575 287.228C754.501 295.717 754.413 304.211 754.628 312.696C754.742 317.153 753.269 319.269 748.578 318.714C746.444 318.461 744.254 318.671 741.595 318.671Z" fill="url(#paint12_linear_103_2)"/>
<defs>
<linearGradient id="paint0_linear_103_2" x1="215.365" y1="134" x2="342.365" y2="134" gradientUnits="userSpaceOnUse">
<stop offset="0.9999"/>
<stop offset="1" stop-color="#3400B9"/>
</linearGradient>
<linearGradient id="paint1_linear_103_2" x1="353.365" y1="171.45" x2="458.966" y2="171.45" gradientUnits="userSpaceOnUse">
<stop offset="0.9999"/>
<stop offset="1" stop-color="#3400B9"/>
</linearGradient>
<linearGradient id="paint2_linear_103_2" x1="0" y1="171.002" x2="104.063" y2="171.002" gradientUnits="userSpaceOnUse">
<stop offset="0.9999"/>
<stop offset="1" stop-color="#3400B9"/>
</linearGradient>
<linearGradient id="paint3_linear_103_2" x1="107.943" y1="171.288" x2="211.792" y2="171.288" gradientUnits="userSpaceOnUse">
<stop offset="0.9999"/>
<stop offset="1" stop-color="#3400B9"/>
</linearGradient>
<linearGradient id="paint4_linear_103_2" x1="457.915" y1="171.385" x2="575.512" y2="171.385" gradientUnits="userSpaceOnUse">
<stop offset="0.9999"/>
<stop offset="1" stop-color="#3400B9"/>
</linearGradient>
<linearGradient id="paint5_linear_103_2" x1="633.805" y1="171.424" x2="751.314" y2="171.424" gradientUnits="userSpaceOnUse">
<stop offset="0.9999"/>
<stop offset="1" stop-color="#3400B9"/>
</linearGradient>
<linearGradient id="paint6_linear_103_2" x1="556.515" y1="171.401" x2="653.053" y2="171.401" gradientUnits="userSpaceOnUse">
<stop offset="0.9999"/>
<stop offset="1" stop-color="#3400B9"/>
</linearGradient>
<linearGradient id="paint7_linear_103_2" x1="364.525" y1="300.425" x2="401.004" y2="300.425" gradientUnits="userSpaceOnUse">
<stop offset="0.9999"/>
<stop offset="1" stop-color="#3400B9"/>
</linearGradient>
<linearGradient id="paint8_linear_103_2" x1="435.327" y1="300.425" x2="471.915" y2="300.425" gradientUnits="userSpaceOnUse">
<stop offset="0.9999"/>
<stop offset="1" stop-color="#3400B9"/>
</linearGradient>
<linearGradient id="paint9_linear_103_2" x1="576.502" y1="300.434" x2="612.987" y2="300.434" gradientUnits="userSpaceOnUse">
<stop offset="0.9999"/>
<stop offset="1" stop-color="#3400B9"/>
</linearGradient>
<linearGradient id="paint10_linear_103_2" x1="647.294" y1="300.44" x2="683.908" y2="300.44" gradientUnits="userSpaceOnUse">
<stop offset="0.9999"/>
<stop offset="1" stop-color="#3400B9"/>
</linearGradient>
<linearGradient id="paint11_linear_103_2" x1="506.194" y1="300.47" x2="542.627" y2="300.47" gradientUnits="userSpaceOnUse">
<stop offset="0.9999"/>
<stop offset="1" stop-color="#3400B9"/>
</linearGradient>
<linearGradient id="paint12_linear_103_2" x1="718.19" y1="300.494" x2="754.634" y2="300.494" gradientUnits="userSpaceOnUse">
<stop offset="0.9999"/>
<stop offset="1" stop-color="#3400B9"/>
</linearGradient>
</defs>
</svg>
