<svg width="742" height="245" viewBox="0 0 742 245" fill="none" xmlns="http://www.w3.org/2000/svg">
<path d="M326.537 152.455C324.086 163.643 320.12 173.582 311.645 181.134C309.572 182.982 310.624 184.605 311.674 186.411C316.112 194.041 320.515 201.691 324.87 209.367C325.655 210.751 326.997 212.019 326.459 213.823C325.579 215.066 324.314 214.797 323.205 214.801C313.043 214.834 302.882 214.767 292.721 214.857C289.864 214.882 288.102 213.817 286.867 211.205C284.24 205.647 282.667 198.415 278.242 195.223C274.059 192.206 266.756 193.659 260.868 192.835C238.112 189.648 222.23 172.762 220.031 149.574C217.918 127.302 219.367 104.976 219.153 82.6779C219.035 70.3798 218.533 58.0733 219.924 45.7554C222.917 19.2592 241.497 1.66147 268.45 0.423709C279.384 -0.0784876 290.097 0.964511 300.109 5.80661C318.84 14.8656 326.972 30.9799 327.44 50.6669C328.172 81.4665 327.668 112.296 327.598 143.113C327.591 146.086 326.952 149.057 326.537 152.455ZM254.701 115.165C255.047 125.454 253.827 135.801 255.821 146.03C257.806 156.213 263.536 161.321 273.041 161.39C283.288 161.464 288.848 156.859 290.965 146.363C291.521 143.607 292.011 140.778 292.019 137.981C292.092 110.349 292.052 82.7173 292.06 55.0852C292.061 50.7058 291.127 46.4752 289.799 42.3682C287.562 35.453 282.476 31.9795 274.636 31.6348C265.822 31.2473 260.744 34.0641 257.714 41.1524C255.455 46.4389 254.751 52.0557 254.731 57.7352C254.668 76.5449 254.704 95.3549 254.701 115.165Z" fill="url(#paint0_linear_101_17)"/>
<path d="M445.674 135.62C445.592 149.225 442.908 161.537 434.754 172.224C426.417 183.151 414.737 188.059 401.703 189.82C382.492 192.415 363.129 190.442 343.84 190.92C341.406 190.98 340.088 189.873 340.144 187.334C340.169 186.169 340.113 185.002 340.113 183.836C340.115 125.872 340.116 67.9076 340.125 9.94314C340.127 2.46981 340.15 2.33187 347.527 2.47445C364.666 2.80569 381.835 1.43121 398.944 3.28509C427.885 6.42086 445.33 25.4783 445.585 54.6775C445.818 81.4925 445.661 108.311 445.674 135.62ZM409.997 107.165C409.996 94.0002 409.935 80.8353 410.025 67.6716C410.061 62.4914 409.737 57.3598 409.056 52.2323C407.737 42.2969 401.843 34.9822 393.12 33.3361C389.402 32.6345 385.488 32.8737 381.662 32.864C374.896 32.8468 374.762 33.0273 374.761 39.9748C374.758 76.4686 374.716 112.962 374.791 149.456C374.815 161.615 372.835 160.318 385.656 160.3C399.885 160.281 407.446 153.16 409.204 139.109C410.494 128.794 409.707 118.477 409.997 107.165Z" fill="url(#paint1_linear_101_17)"/>
<path d="M65.1837 184.167C65.0735 170.72 65.0606 157.722 64.938 144.725C64.9035 141.07 64.694 137.403 64.3104 133.768C63.1612 122.882 60.0113 120.01 49.0336 119.592C47.5354 119.535 46.034 119.566 44.5347 119.53C33.6996 119.273 33.6962 119.271 33.6979 130.367C33.7006 148.532 33.5578 166.699 33.8135 184.86C33.8825 189.764 32.2031 191.265 27.4814 191.049C20.4964 190.729 13.4712 190.675 6.49198 191.048C1.38971 191.321 -0.014205 189.501 0.000108046 184.486C0.161103 127.991 0.108018 71.4957 0.109727 15.0007C0.110093 2.46135 0.10733 2.3055 12.9087 2.47667C29.0582 2.69258 45.2396 1.47511 61.3548 3.20357C88.0708 6.06905 98.5951 16.139 101.241 42.8461C102.385 54.3925 102.171 66.1297 100.939 77.7736C99.8452 88.1176 94.9585 95.9473 86.1327 101.383C85.4632 101.795 84.8868 102.359 84.313 102.816C84.5848 103.383 84.6465 103.829 84.8753 103.945C97.1203 110.146 99.3174 121.452 99.5939 133.505C99.8614 145.164 99.6205 156.835 99.6794 168.5C99.7166 175.884 98.4289 183.509 104.063 190.182C99.0871 191.591 94.7761 190.823 90.5374 190.93C84.8749 191.074 79.1886 190.688 73.545 191.044C68.5944 191.356 65.992 189.366 65.1837 184.167ZM33.7037 75.1499C33.6996 78.1477 33.8207 81.1523 33.6577 84.1414C33.4798 87.4051 34.8969 88.6297 38.0814 88.5211C43.0727 88.351 48.0867 88.628 53.0633 88.2977C61.1457 87.7611 66.5846 82.6466 66.9235 74.6148C67.3303 64.9746 67.3294 55.2891 66.8963 45.6506C66.5599 38.1661 61.4424 33.4313 53.9689 32.9415C48.8255 32.6044 43.6485 32.8165 38.4932 32.6121C34.8034 32.4658 33.591 34.0509 33.6403 37.6838C33.8052 49.8391 33.7038 61.998 33.7037 75.1499Z" fill="url(#paint2_linear_101_17)"/>
<path d="M170.513 193.045C158.68 194.838 147.441 193.726 136.455 190.666C119.848 186.038 111.982 173.805 109.145 157.699C107.109 146.142 108.343 134.44 108.055 122.804C107.989 120.126 109.076 118.697 111.797 118.69C121.124 118.668 130.452 118.671 139.779 118.649C143.167 118.641 143.764 120.65 143.811 123.568C143.951 132.211 143.139 140.876 144.617 149.494C146.206 158.755 151.315 162.594 162.186 162.362C170.878 162.177 176.331 157.351 176.95 148.632C177.35 143 177.328 137.289 176.893 131.66C176.416 125.485 172.731 120.911 168.006 117.169C161.966 112.385 155.224 108.729 148.386 105.274C140.623 101.351 133.232 96.8642 126.596 91.2387C118.052 83.9961 112.293 75.1188 110.901 63.7361C109.62 53.2621 109.454 42.8493 111.924 32.5002C116.093 15.0345 127.377 4.97464 144.659 1.54117C155.194 -0.551755 165.89 -0.492857 176.433 1.59494C196.318 5.53287 208.253 19.5963 209.492 40.5209C209.895 47.3281 209.551 54.1768 209.685 61.0038C209.742 63.9399 208.674 65.0375 205.623 65.1714C196.962 65.5513 188.319 65.1888 179.668 65.1099C176.374 65.0799 175.262 63.5856 175.274 60.5374C175.297 54.7085 175.387 48.8694 175.095 43.0522C174.659 34.3927 170.471 30.2257 162.118 29.6555C152.423 28.9937 147.428 32.4138 145.576 40.9831C142.288 56.1896 145.721 64.4335 159.027 72.583C169.106 78.7563 179.878 83.7397 189.716 90.3432C204.15 100.033 212.238 113.118 211.73 130.93C211.502 138.917 212.28 147.019 211.206 154.878C208.134 177.359 194.103 190.293 170.513 193.045Z" fill="url(#paint3_linear_101_17)"/>
<path d="M459.359 121.843C467.692 84.279 475.911 47.1167 484.14 9.95628C485.803 2.44917 485.818 2.44575 493.533 2.44087C500.36 2.43657 507.208 2.7689 514.009 2.34703C518.837 2.0475 520.674 3.86226 521.675 8.44386C527.034 32.9597 532.678 57.4131 538.239 81.8845C546.082 116.394 553.869 150.915 561.876 185.386C562.868 189.655 562.103 191.15 557.62 191.031C549.465 190.815 541.297 190.801 533.144 191.034C529.559 191.137 528.049 189.681 527.463 186.372C526.392 180.32 525.016 174.321 523.992 168.261C523.365 164.553 521.764 162.866 517.716 162.975C508.231 163.231 498.729 163.233 489.245 162.966C485.226 162.853 483.629 164.384 483.05 168.187C482.124 174.262 480.64 180.252 479.71 186.327C479.174 189.824 477.565 191.091 474.07 191.012C466.248 190.835 458.418 190.976 450.591 190.958C444.085 190.943 443.991 190.731 445.382 184.531C450.036 163.776 454.631 143.008 459.359 121.843ZM498.119 88.7413C495.489 103.073 492.858 117.404 490.081 132.531C497.21 132.531 503.65 132.549 510.091 132.526C516.324 132.504 516.74 131.946 515.567 125.951C513.013 112.905 510.595 99.8317 507.944 86.8054C506.041 77.4497 504.11 68.1076 503.241 58.5142C501.858 68.4221 500.427 78.2205 498.119 88.7413Z" fill="url(#paint4_linear_101_17)"/>
<path d="M647.798 65.1832C652.17 45.4648 656.493 26.1651 660.648 6.82925C661.331 3.64972 662.741 2.3519 666.023 2.40777C674.514 2.55227 683.013 2.57736 691.502 2.37915C695.092 2.29532 696.382 3.87259 697.12 7.15912C705.21 43.1658 713.423 79.1448 721.599 115.132C726.79 137.978 731.981 160.824 737.154 183.673C737.625 185.752 738.42 187.806 737.881 190.527C733.407 191.391 728.768 190.841 724.184 190.935C719.189 191.038 714.181 190.757 709.198 191.016C705.474 191.209 703.707 189.732 703.113 186.143C702.138 180.244 700.874 174.394 699.878 168.498C699.238 164.711 697.741 162.766 693.344 162.931C683.865 163.288 674.358 163.216 664.872 162.963C661.034 162.861 659.481 164.414 658.896 167.932C657.915 173.835 656.591 179.682 655.664 185.592C655.096 189.213 653.839 191.199 649.641 191.047C641.491 190.754 633.321 190.867 625.163 191.004C621.277 191.069 619.869 190.158 620.859 185.787C629.926 145.749 638.777 105.662 647.798 65.1832ZM669.944 109.658C668.65 116.975 667.356 124.292 665.901 132.52C673.367 132.52 680.285 132.339 687.188 132.584C691.765 132.746 692.355 130.926 691.62 126.835C687.252 102.54 680.593 78.6411 678.831 53.8361C678.074 72.5324 673.392 90.5671 669.944 109.658Z" fill="url(#paint5_linear_101_17)"/>
<path d="M574.13 46.6931C573.882 33.6128 576.22 34.6914 562.8 34.6962C557.804 34.698 552.809 34.6375 547.814 34.6466C544.735 34.6523 543.246 33.2563 543.271 30.0936C543.334 22.2679 543.379 14.4401 543.264 6.6156C543.2 2.30456 546.011 2.42361 548.981 2.42541C575.291 2.44137 601.601 2.42398 627.911 2.4407C639.763 2.44824 639.764 2.47321 639.76 14.4326C639.758 19.5946 639.622 24.761 639.794 29.9172C639.91 33.3826 638.438 34.7148 635.088 34.6715C628.595 34.5876 622.1 34.6691 615.606 34.6618C608.872 34.6542 608.805 34.6435 608.785 41.6021C608.737 58.0873 608.667 74.5734 608.774 91.058C608.945 117.363 608.316 143.67 609.199 169.974C609.388 175.618 608.835 181.283 608.769 186.94C608.739 189.57 607.886 190.982 605.024 190.961C596.033 190.896 587.04 190.911 578.049 190.955C575.347 190.968 574.035 189.799 574.124 187.062C574.172 185.566 574.107 184.066 574.108 182.567C574.114 137.44 574.123 92.3137 574.13 46.6931Z" fill="url(#paint6_linear_101_17)"/>
<path d="M382.187 207.507C386.153 207.231 387.828 208.534 387.75 212.336C387.566 221.311 387.596 230.293 387.724 239.27C387.772 242.621 386.668 244.074 383.135 244.009C374.159 243.845 365.176 243.821 356.201 244.007C352.392 244.085 351.277 242.41 351.316 238.931C351.414 230.286 351.442 221.637 351.276 212.994C351.2 209.003 352.552 207.304 356.769 207.429C365.075 207.675 373.394 207.503 382.187 207.507Z" fill="url(#paint7_linear_101_17)"/>
<path d="M422.085 221.674C422.074 207.511 422.074 207.51 435.719 207.493C441.87 207.486 448.022 207.554 454.171 207.453C457.312 207.401 458.694 208.655 458.663 211.869C458.571 221.178 458.589 230.488 458.653 239.797C458.673 242.73 457.467 244.008 454.491 243.982C445.016 243.899 435.539 243.892 426.064 243.957C422.975 243.979 422.037 242.454 422.076 239.627C422.158 233.81 422.091 227.99 422.085 221.674Z" fill="url(#paint8_linear_101_17)"/>
<path d="M587.346 207.476C599.708 207.492 599.71 207.492 599.704 219.439C599.701 225.93 599.571 232.423 599.73 238.91C599.815 242.385 598.865 244.112 594.985 244.025C586.002 243.824 577.011 243.861 568.026 243.996C564.564 244.048 563.267 242.63 563.298 239.269C563.38 230.283 563.398 221.294 563.252 212.31C563.191 208.574 564.82 207.336 568.378 207.43C574.532 207.592 580.692 207.476 587.346 207.476Z" fill="url(#paint9_linear_101_17)"/>
<path d="M652.366 207.489C657.197 207.492 661.533 207.591 665.862 207.467C669.223 207.37 670.702 208.69 670.655 212.162C670.533 221.159 670.543 230.16 670.643 239.157C670.68 242.446 669.61 244.057 666.047 244.001C656.884 243.858 647.717 243.879 638.552 243.974C635.413 244.007 634.017 242.878 634.056 239.611C634.165 230.447 634.174 221.279 634.043 212.116C633.993 208.595 635.546 207.378 638.869 207.472C643.198 207.595 647.534 207.494 652.366 207.489Z" fill="url(#paint10_linear_101_17)"/>
<path d="M529.307 237.445C529.736 242.281 528.182 244.254 523.394 244.06C514.914 243.717 506.407 243.839 497.916 243.997C494.268 244.065 492.876 242.736 492.946 239.051C493.114 230.227 493.102 221.395 492.945 212.57C492.882 209.012 494.028 207.402 497.79 207.466C506.615 207.618 515.446 207.614 524.271 207.452C527.967 207.385 529.372 208.963 529.343 212.487C529.276 220.648 529.317 228.809 529.307 237.445Z" fill="url(#paint11_linear_101_17)"/>
<path d="M728.343 243.963C721.688 243.954 715.527 243.867 709.369 243.966C706.184 244.018 704.915 242.723 704.954 239.514C705.067 230.36 705.089 221.201 704.94 212.048C704.881 208.452 706.54 207.451 709.798 207.489C718.62 207.59 727.445 207.627 736.266 207.48C739.945 207.419 741.353 208.978 741.323 212.52C741.249 221.009 741.161 229.503 741.376 237.988C741.49 242.445 740.017 244.561 735.326 244.006C733.192 243.753 731.003 243.963 728.343 243.963Z" fill="url(#paint12_linear_101_17)"/>
<defs>
<linearGradient id="paint0_linear_101_17" x1="218.865" y1="107.584" x2="327.832" y2="107.584" gradientUnits="userSpaceOnUse">
<stop/>
<stop offset="1" stop-color="#3400B9"/>
</linearGradient>
<linearGradient id="paint1_linear_101_17" x1="340.113" y1="96.7423" x2="445.714" y2="96.7423" gradientUnits="userSpaceOnUse">
<stop/>
<stop offset="1" stop-color="#3400B9"/>
</linearGradient>
<linearGradient id="paint2_linear_101_17" x1="0" y1="96.6675" x2="104.063" y2="96.6675" gradientUnits="userSpaceOnUse">
<stop/>
<stop offset="1" stop-color="#3400B9"/>
</linearGradient>
<linearGradient id="paint3_linear_101_17" x1="107.943" y1="96.9526" x2="211.792" y2="96.9526" gradientUnits="userSpaceOnUse">
<stop/>
<stop offset="1" stop-color="#3400B9"/>
</linearGradient>
<linearGradient id="paint4_linear_101_17" x1="444.663" y1="96.6772" x2="562.26" y2="96.6772" gradientUnits="userSpaceOnUse">
<stop/>
<stop offset="1" stop-color="#3400B9"/>
</linearGradient>
<linearGradient id="paint5_linear_101_17" x1="620.553" y1="96.7157" x2="738.062" y2="96.7157" gradientUnits="userSpaceOnUse">
<stop/>
<stop offset="1" stop-color="#3400B9"/>
</linearGradient>
<linearGradient id="paint6_linear_101_17" x1="543.263" y1="96.6932" x2="639.801" y2="96.6932" gradientUnits="userSpaceOnUse">
<stop/>
<stop offset="1" stop-color="#3400B9"/>
</linearGradient>
<linearGradient id="paint7_linear_101_17" x1="351.273" y1="225.717" x2="387.752" y2="225.717" gradientUnits="userSpaceOnUse">
<stop/>
<stop offset="1" stop-color="#3400B9"/>
</linearGradient>
<linearGradient id="paint8_linear_101_17" x1="422.075" y1="225.717" x2="458.663" y2="225.717" gradientUnits="userSpaceOnUse">
<stop/>
<stop offset="1" stop-color="#3400B9"/>
</linearGradient>
<linearGradient id="paint9_linear_101_17" x1="563.25" y1="225.726" x2="599.735" y2="225.726" gradientUnits="userSpaceOnUse">
<stop/>
<stop offset="1" stop-color="#3400B9"/>
</linearGradient>
<linearGradient id="paint10_linear_101_17" x1="634.042" y1="225.732" x2="670.656" y2="225.732" gradientUnits="userSpaceOnUse">
<stop/>
<stop offset="1" stop-color="#3400B9"/>
</linearGradient>
<linearGradient id="paint11_linear_101_17" x1="492.942" y1="225.762" x2="529.375" y2="225.762" gradientUnits="userSpaceOnUse">
<stop/>
<stop offset="1" stop-color="#3400B9"/>
</linearGradient>
<linearGradient id="paint12_linear_101_17" x1="704.938" y1="225.786" x2="741.382" y2="225.786" gradientUnits="userSpaceOnUse">
<stop/>
<stop offset="1" stop-color="#3400B9"/>
</linearGradient>
</defs>
</svg>
