<svg width="188" height="42" viewBox="0 0 188 42" fill="none" xmlns="http://www.w3.org/2000/svg">
<path d="M0 16C0 7.16344 7.16344 0 16 0H172C180.837 0 188 7.16344 188 16V26C188 34.8366 180.837 42 172 42H16C7.16344 42 0 34.8366 0 26V16Z" fill="#EBEBEC"/>
<path d="M41.4048 14.3471C39.8482 15.2941 38.8867 16.9176 38.8867 18.7216C38.8867 20.751 40.1229 22.6 42 23.3667C41.6337 24.5392 41.0843 25.6216 40.3976 26.6137C39.3904 28.0118 38.3373 29.4549 36.7807 29.4549C35.2241 29.4549 34.7663 28.5529 32.9349 28.5529C31.1494 28.5529 30.5084 29.5 29.0434 29.5C27.5783 29.5 26.5711 28.1922 25.4265 26.5686C23.9157 24.3137 23.0458 21.698 23 18.9471C23 14.4824 25.9301 12.0922 28.8602 12.0922C30.4169 12.0922 31.6988 13.0843 32.6602 13.0843C33.5759 13.0843 35.041 12.0471 36.7807 12.0471C38.612 12.002 40.3518 12.8588 41.4048 14.3471ZM35.9566 10.1529C36.7349 9.25098 37.147 8.12353 37.1928 6.95098C37.1928 6.81569 37.1928 6.63529 37.147 6.5C35.8193 6.63529 34.5831 7.26667 33.7133 8.25882C32.9349 9.11569 32.4771 10.198 32.4313 11.3706C32.4313 11.5059 32.4313 11.6412 32.4771 11.7765C32.5687 11.7765 32.706 11.8216 32.7976 11.8216C34.0337 11.7314 35.1783 11.1 35.9566 10.1529Z" fill="#18181B"/>
<path d="M70.8902 15.1592H68.5706V6.79554H71.0699C71.854 6.79554 72.5251 6.96162 73.0832 7.29377C73.6414 7.62592 74.0688 8.10236 74.3656 8.7231C74.665 9.34112 74.8134 10.083 74.8107 10.9488C74.808 11.8336 74.6528 12.5905 74.3451 13.2194C74.0375 13.8456 73.5924 14.3261 73.0097 14.661C72.4271 14.9931 71.7206 15.1592 70.8902 15.1592ZM69.0811 14.6855H70.8698C71.6158 14.6855 72.2447 14.5371 72.7565 14.2403C73.2684 13.9408 73.655 13.512 73.9163 12.9539C74.1804 12.3958 74.3111 11.7274 74.3084 10.9488C74.3084 10.181 74.1818 9.52353 73.9286 8.9763C73.6754 8.42634 73.3065 8.00435 72.8219 7.71032C72.34 7.41628 71.7492 7.26926 71.0495 7.26926H69.0811V14.6855ZM83.4551 10.9774C83.4551 11.8404 83.3053 12.5945 83.0059 13.2398C82.7064 13.8823 82.2898 14.3819 81.7562 14.7385C81.2253 15.0952 80.6128 15.2735 79.9185 15.2735C79.2215 15.2735 78.6062 15.0952 78.0726 14.7385C77.5417 14.3792 77.1266 13.8782 76.8271 13.2357C76.5276 12.5905 76.3779 11.8377 76.3779 10.9774C76.3779 10.1143 76.5276 9.36153 76.8271 8.71902C77.1293 8.0765 77.5458 7.57691 78.0767 7.22026C78.6076 6.86088 79.2215 6.6812 79.9185 6.6812C80.6128 6.6812 81.2253 6.85952 81.7562 7.21617C82.2898 7.57283 82.7064 8.07377 83.0059 8.71902C83.3053 9.36153 83.4551 10.1143 83.4551 10.9774ZM82.9569 10.9774C82.9569 10.2014 82.8262 9.52897 82.5648 8.95996C82.3062 8.39095 81.9482 7.95126 81.4908 7.64089C81.0334 7.3278 80.5093 7.17125 79.9185 7.17125C79.3277 7.17125 78.8036 7.32644 78.3462 7.63681C77.8889 7.94445 77.5295 8.38414 77.2681 8.95588C77.0095 9.52489 76.8802 10.1987 76.8802 10.9774C76.8802 11.7478 77.0081 12.4189 77.264 12.9907C77.5227 13.5597 77.8807 14.0007 78.3381 14.3138C78.7955 14.6269 79.3223 14.7835 79.9185 14.7835C80.5093 14.7835 81.0334 14.6283 81.4908 14.3179C81.9482 14.0048 82.3062 13.5638 82.5648 12.9948C82.8262 12.4258 82.9569 11.7533 82.9569 10.9774ZM86.8385 15.1592L84.5393 6.79554H85.0702L87.1121 14.371H87.1611L89.1704 6.79554H89.7911L91.8003 14.371H91.8494L93.8913 6.79554H94.4181L92.1189 15.1592H91.5308L89.5012 7.63272H89.4562L87.4266 15.1592H86.8385ZM102.319 6.79554V15.1592H101.821L96.4875 7.72257H96.4385V15.1592H95.9281V6.79554H96.4304L101.764 14.2403H101.813V6.79554H102.319ZM104.733 15.1592V6.79554H105.243V14.6855H109.327V15.1592H104.733ZM117.528 10.9774C117.528 11.8404 117.379 12.5945 117.079 13.2398C116.78 13.8823 116.363 14.3819 115.829 14.7385C115.299 15.0952 114.686 15.2735 113.992 15.2735C113.295 15.2735 112.679 15.0952 112.146 14.7385C111.615 14.3792 111.2 13.8782 110.9 13.2357C110.601 12.5905 110.451 11.8377 110.451 10.9774C110.451 10.1143 110.601 9.36153 110.9 8.71902C111.203 8.0765 111.619 7.57691 112.15 7.22026C112.681 6.86088 113.295 6.6812 113.992 6.6812C114.686 6.6812 115.299 6.85952 115.829 7.21617C116.363 7.57283 116.78 8.07377 117.079 8.71902C117.379 9.36153 117.528 10.1143 117.528 10.9774ZM117.03 10.9774C117.03 10.2014 116.899 9.52897 116.638 8.95996C116.379 8.39095 116.021 7.95126 115.564 7.64089C115.107 7.3278 114.583 7.17125 113.992 7.17125C113.401 7.17125 112.877 7.32644 112.419 7.63681C111.962 7.94445 111.603 8.38414 111.341 8.95588C111.083 9.52489 110.953 10.1987 110.953 10.9774C110.953 11.7478 111.081 12.4189 111.337 12.9907C111.596 13.5597 111.954 14.0007 112.411 14.3138C112.869 14.6269 113.396 14.7835 113.992 14.7835C114.583 14.7835 115.107 14.6283 115.564 14.3179C116.021 14.0048 116.379 13.5638 116.638 12.9948C116.899 12.4258 117.03 11.7533 117.03 10.9774ZM118.808 15.1592H118.269L121.286 6.79554H121.875L124.892 15.1592H124.353L121.601 7.45304H121.56L118.808 15.1592ZM119.571 12.0106H123.59V12.4843H119.571V12.0106ZM128.772 15.1592H126.452V6.79554H128.952C129.736 6.79554 130.407 6.96162 130.965 7.29377C131.523 7.62592 131.951 8.10236 132.247 8.7231C132.547 9.34112 132.695 10.083 132.693 10.9488C132.69 11.8336 132.535 12.5905 132.227 13.2194C131.919 13.8456 131.474 14.3261 130.892 14.661C130.309 14.9931 129.602 15.1592 128.772 15.1592ZM126.963 14.6855H128.752C129.498 14.6855 130.127 14.5371 130.638 14.2403C131.15 13.9408 131.537 13.512 131.798 12.9539C132.062 12.3958 132.193 11.7274 132.19 10.9488C132.19 10.181 132.064 9.52353 131.81 8.9763C131.557 8.42634 131.188 8.00435 130.704 7.71032C130.222 7.41628 129.631 7.26926 128.931 7.26926H126.963V14.6855ZM137.363 7.26926V6.79554H143.224V7.26926H140.549V15.1592H140.038V7.26926H137.363ZM145.084 15.1592V6.79554H145.594V10.7364H150.634V6.79554H151.144V15.1592H150.634V11.2101H145.594V15.1592H145.084ZM153.563 15.1592V6.79554H158.218V7.26926H154.073V10.7364H157.969V11.2101H154.073V14.6855H158.316V15.1592H153.563Z" fill="#18181B"/>
<path d="M68.9524 32.8409V21.2046H73.3161C74.21 21.2046 74.96 21.3599 75.5661 21.6705C76.1759 21.9811 76.6361 22.4167 76.9467 22.9773C77.2611 23.5341 77.4183 24.1837 77.4183 24.9262C77.4183 25.6724 77.2592 26.3201 76.9411 26.8694C76.6267 27.4148 76.1626 27.8372 75.549 28.1364C74.9354 28.4319 74.1816 28.5796 73.2876 28.5796H70.1797V26.8296H73.0036C73.5263 26.8296 73.9543 26.7576 74.2876 26.6137C74.621 26.4659 74.8672 26.2519 75.0263 25.9716C75.1892 25.6875 75.2706 25.339 75.2706 24.9262C75.2706 24.5133 75.1892 24.161 75.0263 23.8694C74.8634 23.5739 74.6153 23.3504 74.282 23.1989C73.9486 23.0436 73.5187 22.9659 72.9922 22.9659H71.0604V32.8409H68.9524ZM74.9638 27.5682L77.8445 32.8409H75.4922L72.6626 27.5682H74.9638ZM79.3587 32.8409V21.2046H86.9268V22.9716H81.4666V26.1307H86.5348V27.8978H81.4666V31.0739H86.9723V32.8409H79.3587ZM89.0774 21.2046H91.657L95.1115 29.6364H95.2479L98.7024 21.2046H101.282V32.8409H99.2592V24.8466H99.1513L95.9354 32.8069H94.424L91.2081 24.8296H91.1001V32.8409H89.0774V21.2046ZM105.072 32.8409H102.822L106.918 21.2046H109.521L113.623 32.8409H111.373L108.265 23.5909H108.174L105.072 32.8409ZM105.146 28.2784H111.282V29.9716H105.146V28.2784ZM116.917 21.2046L119.479 25.4659H119.57L122.144 21.2046H124.548L120.962 27.0228L124.604 32.8409H122.161L119.57 28.608H119.479L116.888 32.8409H114.457L118.133 27.0228L114.502 21.2046H116.917ZM131.665 32.8409H129.415L133.512 21.2046H136.114L140.217 32.8409H137.967L134.859 23.5909H134.768L131.665 32.8409ZM131.739 28.2784H137.876V29.9716H131.739V28.2784ZM141.749 32.8409V21.2046H146.113C147.007 21.2046 147.757 21.3712 148.363 21.7046C148.973 22.0379 149.433 22.4962 149.744 23.0796C150.058 23.6591 150.215 24.3182 150.215 25.0569C150.215 25.8031 150.058 26.4659 149.744 27.0455C149.429 27.625 148.965 28.0815 148.352 28.4148C147.738 28.7444 146.982 28.9091 146.085 28.9091H143.192V27.1762H145.8C146.323 27.1762 146.751 27.0853 147.085 26.9034C147.418 26.7216 147.664 26.4716 147.823 26.1534C147.986 25.8353 148.067 25.4697 148.067 25.0569C148.067 24.644 147.986 24.2803 147.823 23.9659C147.664 23.6515 147.416 23.4072 147.079 23.233C146.746 23.055 146.316 22.9659 145.789 22.9659H143.857V32.8409H141.749ZM152.046 32.8409V21.2046H156.41C157.304 21.2046 158.054 21.3712 158.66 21.7046C159.27 22.0379 159.73 22.4962 160.04 23.0796C160.355 23.6591 160.512 24.3182 160.512 25.0569C160.512 25.8031 160.355 26.4659 160.04 27.0455C159.726 27.625 159.262 28.0815 158.648 28.4148C158.035 28.7444 157.279 28.9091 156.381 28.9091H153.489V27.1762H156.097C156.62 27.1762 157.048 27.0853 157.381 26.9034C157.715 26.7216 157.961 26.4716 158.12 26.1534C158.283 25.8353 158.364 25.4697 158.364 25.0569C158.364 24.644 158.283 24.2803 158.12 23.9659C157.961 23.6515 157.713 23.4072 157.376 23.233C157.042 23.055 156.612 22.9659 156.086 22.9659H154.154V32.8409H152.046Z" fill="#18181B"/>
</svg>
